<svg width="19.000000" height="20.000000" viewBox="0 0 19 20" fill="none" xmlns="http://www.w3.org/2000/svg" xmlns:xlink="http://www.w3.org/1999/xlink">
	<desc>
			Created with Pixso.
	</desc>
	<defs/>
	<path id="Vector" d="M16.15 15.46C15.11 16.81 13.7 17.84 12.09 18.42C10.48 19 8.74 19.11 7.07 18.74C5.41 18.37 3.88 17.53 2.67 16.32C1.46 15.11 0.62 13.58 0.25 11.92C-0.12 10.25 -0.01 8.51 0.57 6.9C1.15 5.29 2.18 3.88 3.53 2.84C4.88 1.79 6.5 1.15 8.2 1C7.21 2.34 6.73 4 6.85 5.68C6.98 7.35 7.7 8.92 8.88 10.11C10.07 11.29 11.64 12.01 13.31 12.14C14.99 12.26 16.65 11.78 18 10.79C17.84 12.49 17.2 14.11 16.15 15.46Z" stroke="#FFFFFF" stroke-opacity="1.000000" stroke-width="2.000000" stroke-linejoin="round"/>
</svg>
